<svg width="20" height="21" viewBox="0 0 20 21" fill="none" xmlns="http://www.w3.org/2000/svg">
<g clip-path="url(#clip0_9598_3682)">
<path d="M14.8333 17.0142L13.0233 17.9625C12.9696 17.9905 12.9092 18.0029 12.8488 17.9985C12.7884 17.9941 12.7304 17.973 12.6813 17.9376C12.6322 17.9022 12.594 17.8538 12.5708 17.7978C12.5476 17.7419 12.5404 17.6806 12.55 17.6208L12.8958 15.6117L11.4317 14.1892C11.388 14.1469 11.357 14.0932 11.3424 14.0342C11.3277 13.9752 11.33 13.9133 11.3488 13.8555C11.3677 13.7978 11.4024 13.7464 11.449 13.7074C11.4957 13.6684 11.5523 13.6433 11.6125 13.635L13.6358 13.3417L14.5408 11.5142C14.5679 11.4597 14.6096 11.4139 14.6613 11.3819C14.713 11.3499 14.7726 11.3329 14.8333 11.3329C14.8941 11.3329 14.9537 11.3499 15.0054 11.3819C15.0571 11.4139 15.0988 11.4597 15.1258 11.5142L16.0308 13.3417L18.0542 13.635C18.1142 13.6436 18.1706 13.6689 18.2171 13.7079C18.2635 13.747 18.2981 13.7982 18.3169 13.8559C18.3357 13.9135 18.338 13.9753 18.3235 14.0342C18.3091 14.0931 18.2784 14.1468 18.235 14.1892L16.7708 15.6117L17.1158 17.62C17.1262 17.6799 17.1196 17.7415 17.0967 17.7978C17.0738 17.8541 17.0355 17.9028 16.9863 17.9385C16.9371 17.9742 16.8789 17.9953 16.8183 17.9996C16.7576 18.0038 16.697 17.991 16.6433 17.9625L14.8333 17.0142Z" stroke="#707070" stroke-width="2" stroke-linecap="round" stroke-linejoin="round"/>
<path d="M5.16666 17.0142L3.35666 17.9625C3.30295 17.9905 3.24252 18.0029 3.18213 17.9985C3.12173 17.9941 3.06375 17.973 3.01465 17.9376C2.96556 17.9022 2.92727 17.8538 2.90408 17.7978C2.88089 17.7419 2.87371 17.6806 2.88333 17.6208L3.22916 15.6117L1.76499 14.1892C1.72129 14.1469 1.69035 14.0932 1.6757 14.0342C1.66104 13.9752 1.66327 13.9133 1.68213 13.8555C1.70099 13.7978 1.73571 13.7464 1.78234 13.7074C1.82897 13.6684 1.88562 13.6433 1.94583 13.635L3.96916 13.3417L4.87416 11.5142C4.90123 11.4597 4.94294 11.4139 4.99462 11.3819C5.04629 11.3499 5.10587 11.3329 5.16666 11.3329C5.22745 11.3329 5.28703 11.3499 5.33871 11.3819C5.39038 11.4139 5.4321 11.4597 5.45916 11.5142L6.36416 13.3417L8.38749 13.635C8.44753 13.6436 8.50395 13.6689 8.55037 13.7079C8.59679 13.747 8.63137 13.7982 8.65018 13.8559C8.669 13.9135 8.6713 13.9753 8.65684 14.0342C8.64237 14.0931 8.61171 14.1468 8.56833 14.1892L7.10416 15.6117L7.44916 17.62C7.45952 17.6799 7.45287 17.7415 7.42998 17.7978C7.40708 17.8541 7.36886 17.9028 7.31965 17.9385C7.27044 17.9742 7.21222 17.9953 7.15159 17.9996C7.09096 18.0038 7.03036 17.991 6.97666 17.9625L5.16666 17.0142Z" stroke="#707070" stroke-width="2" stroke-linecap="round" stroke-linejoin="round"/>
<path d="M9.99997 8.68084L8.18997 9.62917C8.13626 9.65713 8.07583 9.6696 8.01544 9.66521C7.95505 9.66081 7.89707 9.63972 7.84797 9.60427C7.79887 9.56883 7.76059 9.52044 7.7374 9.46451C7.71421 9.40857 7.70702 9.34729 7.71664 9.28751L8.06247 7.27834L6.59831 5.85584C6.55461 5.81359 6.52366 5.75991 6.50901 5.70091C6.49436 5.64192 6.49659 5.58 6.51544 5.52221C6.5343 5.46442 6.56902 5.4131 6.61565 5.37411C6.66228 5.33511 6.71893 5.31001 6.77914 5.30167L8.80247 5.00834L9.70747 3.18084C9.73454 3.12641 9.77626 3.08061 9.82793 3.04859C9.8796 3.01658 9.93919 2.99962 9.99997 2.99962C10.0608 2.99962 10.1203 3.01658 10.172 3.04859C10.2237 3.08061 10.2654 3.12641 10.2925 3.18084L11.1975 5.00834L13.2208 5.30167C13.2808 5.31031 13.3373 5.33557 13.3837 5.3746C13.4301 5.41364 13.4647 5.46488 13.4835 5.52254C13.5023 5.5802 13.5046 5.64197 13.4902 5.70087C13.4757 5.75978 13.445 5.81345 13.4016 5.85584L11.9375 7.27834L12.2825 9.28667C12.2928 9.34656 12.2862 9.40815 12.2633 9.46445C12.2404 9.52076 12.2022 9.56951 12.153 9.60518C12.1038 9.64085 12.0455 9.66201 11.9849 9.66625C11.9243 9.67049 11.8637 9.65764 11.81 9.62917L9.99997 8.68084Z" stroke="#707070" stroke-width="2" stroke-linecap="round" stroke-linejoin="round"/>
</g>
<defs>
<clipPath id="clip0_9598_3682">
<rect width="20" height="20" fill="white" transform="translate(0 0.5)"/>
</clipPath>
</defs>
</svg>
