<svg width="20" height="21" viewBox="0 0 20 21" fill="none" xmlns="http://www.w3.org/2000/svg">
<path d="M11.6667 2.16666V5.49999C11.6667 5.94202 11.8423 6.36594 12.1548 6.6785C12.4674 6.99106 12.8913 7.16666 13.3334 7.16666H16.6667" stroke="#707070" stroke-width="2" stroke-linecap="round" stroke-linejoin="round"/>
<path d="M1.92084 13.4417L2.69 13.1233" stroke="#707070" stroke-width="2" stroke-linecap="round" stroke-linejoin="round"/>
<path d="M2.68998 11.21L1.91998 10.8908" stroke="#707070" stroke-width="2" stroke-linecap="round" stroke-linejoin="round"/>
<path d="M3.89748 18.4167C4.19981 18.6833 4.58854 18.8313 4.99165 18.8333H15C15.442 18.8333 15.8659 18.6577 16.1785 18.3452C16.4911 18.0326 16.6666 17.6087 16.6666 17.1667V6.33332L12.5 2.16666H4.99998C4.55795 2.16666 4.13403 2.34225 3.82147 2.65481C3.50891 2.96737 3.33331 3.3913 3.33331 3.83332V5.91666" stroke="#707070" stroke-width="2" stroke-linecap="round" stroke-linejoin="round"/>
<path d="M4.04335 9.85666L3.72418 9.08749" stroke="#707070" stroke-width="2" stroke-linecap="round" stroke-linejoin="round"/>
<path d="M4.04335 14.4767L3.72418 15.2467" stroke="#707070" stroke-width="2" stroke-linecap="round" stroke-linejoin="round"/>
<path d="M5.95667 9.85666L6.27583 9.08749" stroke="#707070" stroke-width="2" stroke-linecap="round" stroke-linejoin="round"/>
<path d="M6.275 15.2467L5.95667 14.4767" stroke="#707070" stroke-width="2" stroke-linecap="round" stroke-linejoin="round"/>
<path d="M7.31 11.21L8.07916 10.8908" stroke="#707070" stroke-width="2" stroke-linecap="round" stroke-linejoin="round"/>
<path d="M7.31 13.1233L8.07916 13.4425" stroke="#707070" stroke-width="2" stroke-linecap="round" stroke-linejoin="round"/>
<path d="M5 14.6667C6.38071 14.6667 7.5 13.5474 7.5 12.1667C7.5 10.7859 6.38071 9.66666 5 9.66666C3.61929 9.66666 2.5 10.7859 2.5 12.1667C2.5 13.5474 3.61929 14.6667 5 14.6667Z" stroke="#707070" stroke-width="2" stroke-linecap="round" stroke-linejoin="round"/>
</svg>
