<svg width="20" height="20" viewBox="0 0 20 20" fill="none" xmlns="http://www.w3.org/2000/svg">
<path d="M15.8333 14.1667V4.16667C15.8333 3.72464 15.6577 3.30072 15.3452 2.98816C15.0326 2.67559 14.6087 2.5 14.1667 2.5H3.33334" stroke="#707070" stroke-width="2" stroke-linecap="round" stroke-linejoin="round"/>
<path d="M6.66666 17.5H16.6667C17.1087 17.5 17.5326 17.3244 17.8452 17.0118C18.1577 16.6993 18.3333 16.2754 18.3333 15.8333V15C18.3333 14.779 18.2455 14.567 18.0892 14.4107C17.933 14.2545 17.721 14.1667 17.5 14.1667H9.16666C8.94564 14.1667 8.73368 14.2545 8.5774 14.4107C8.42112 14.567 8.33332 14.779 8.33332 15V15.8333C8.33332 16.2754 8.15773 16.6993 7.84517 17.0118C7.53261 17.3244 7.10868 17.5 6.66666 17.5ZM6.66666 17.5C6.22463 17.5 5.80071 17.3244 5.48815 17.0118C5.17558 16.6993 4.99999 16.2754 4.99999 15.8333V4.16667C4.99999 3.72464 4.8244 3.30072 4.51183 2.98816C4.19927 2.67559 3.77535 2.5 3.33332 2.5C2.8913 2.5 2.46737 2.67559 2.15481 2.98816C1.84225 3.30072 1.66666 3.72464 1.66666 4.16667V5.83333C1.66666 6.05435 1.75445 6.26631 1.91073 6.42259C2.06701 6.57887 2.27898 6.66667 2.49999 6.66667H4.99999" stroke="#707070" stroke-width="2" stroke-linecap="round" stroke-linejoin="round"/>
</svg>
