<svg width="20" height="21" viewBox="0 0 20 21" fill="none" xmlns="http://www.w3.org/2000/svg">
<path d="M12.5 2.16666H4.99998C4.55795 2.16666 4.13403 2.34225 3.82147 2.65481C3.50891 2.96737 3.33331 3.3913 3.33331 3.83332V17.1667C3.33331 17.6087 3.50891 18.0326 3.82147 18.3452C4.13403 18.6577 4.55795 18.8333 4.99998 18.8333H15C15.442 18.8333 15.8659 18.6577 16.1785 18.3452C16.4911 18.0326 16.6666 17.6087 16.6666 17.1667V6.33332L12.5 2.16666Z" stroke="#707070" stroke-width="2" stroke-linecap="round" stroke-linejoin="round"/>
<path d="M11.6667 2.16666V5.49999C11.6667 5.94202 11.8423 6.36594 12.1548 6.6785C12.4674 6.99106 12.8913 7.16666 13.3334 7.16666H16.6667" stroke="#707070" stroke-width="2" stroke-linecap="round" stroke-linejoin="round"/>
<path d="M8.33335 8H6.66669" stroke="#707070" stroke-width="2" stroke-linecap="round" stroke-linejoin="round"/>
<path d="M13.3334 11.3333H6.66669" stroke="#707070" stroke-width="2" stroke-linecap="round" stroke-linejoin="round"/>
<path d="M13.3334 14.6667H6.66669" stroke="#707070" stroke-width="2" stroke-linecap="round" stroke-linejoin="round"/>
</svg>
