<svg width="20" height="21" viewBox="0 0 20 21" fill="none" xmlns="http://www.w3.org/2000/svg">
<path d="M3.20831 7.68333C3.08668 7.13544 3.10536 6.5657 3.26261 6.02695C3.41986 5.4882 3.7106 4.99787 4.10787 4.60143C4.50514 4.205 4.99607 3.91529 5.53515 3.75916C6.07423 3.60304 6.64401 3.58555 7.19164 3.70833C7.49307 3.23692 7.90831 2.84897 8.3991 2.58024C8.88989 2.31151 9.44043 2.17065 9.99998 2.17065C10.5595 2.17065 11.1101 2.31151 11.6009 2.58024C12.0916 2.84897 12.5069 3.23692 12.8083 3.70833C13.3568 3.58502 13.9275 3.60242 14.4675 3.75893C15.0074 3.91543 15.499 4.20595 15.8965 4.60346C16.294 5.00097 16.5845 5.49256 16.741 6.0325C16.8976 6.57244 16.915 7.14319 16.7916 7.69167C17.2631 7.99309 17.651 8.40834 17.9197 8.89913C18.1885 9.38992 18.3293 9.94046 18.3293 10.5C18.3293 11.0595 18.1885 11.6101 17.9197 12.1009C17.651 12.5917 17.2631 13.0069 16.7916 13.3083C16.9144 13.856 16.8969 14.4257 16.7408 14.9648C16.5847 15.5039 16.295 15.9948 15.8985 16.3921C15.5021 16.7894 15.0118 17.0801 14.473 17.2374C13.9343 17.3946 13.3645 17.4133 12.8166 17.2917C12.5156 17.7649 12.1 18.1545 11.6084 18.4244C11.1168 18.6944 10.565 18.8359 10.0041 18.8359C9.44329 18.8359 8.8915 18.6944 8.39987 18.4244C7.90825 18.1545 7.49268 17.7649 7.19164 17.2917C6.64401 17.4144 6.07423 17.397 5.53515 17.2408C4.99607 17.0847 4.50514 16.795 4.10787 16.3986C3.7106 16.0021 3.41986 15.5118 3.26261 14.9731C3.10536 14.4343 3.08668 13.8646 3.20831 13.3167C2.73327 13.016 2.34199 12.6001 2.07085 12.1077C1.79971 11.6152 1.65753 11.0622 1.65753 10.5C1.65753 9.93783 1.79971 9.38479 2.07085 8.89232C2.34199 8.39986 2.73327 7.98396 3.20831 7.68333Z" stroke="#707070" stroke-width="2" stroke-linecap="round" stroke-linejoin="round"/>
<path d="M5.83331 10.5H9.99998" stroke="#707070" stroke-width="2" stroke-linecap="round" stroke-linejoin="round"/>
<path d="M12.5 8.33333C12.0571 7.81553 11.4662 7.44589 10.8068 7.27421C10.1474 7.10253 9.4512 7.13704 8.81202 7.37311C8.17284 7.60918 7.62136 8.03546 7.23186 8.59453C6.84236 9.15361 6.63354 9.81862 6.63354 10.5C6.63354 11.1814 6.84236 11.8464 7.23186 12.4055C7.62136 12.9645 8.17284 13.3908 8.81202 13.6269C9.4512 13.863 10.1474 13.8975 10.8068 13.7258C11.4662 13.5541 12.0571 13.1845 12.5 12.6667" stroke="#707070" stroke-width="2" stroke-linecap="round" stroke-linejoin="round"/>
</svg>
