<svg width="20" height="21" viewBox="0 0 20 21" fill="none" xmlns="http://www.w3.org/2000/svg">
<path d="M17.5 13C17.5 13.442 17.3244 13.866 17.0118 14.1785C16.6993 14.4911 16.2754 14.6667 15.8333 14.6667H5.83333L2.5 18V4.66667C2.5 4.22464 2.67559 3.80072 2.98816 3.48816C3.30072 3.17559 3.72464 3 4.16667 3H15.8333C16.2754 3 16.6993 3.17559 17.0118 3.48816C17.3244 3.80072 17.5 4.22464 17.5 4.66667V13Z" stroke="#707070" stroke-width="2" stroke-linecap="round" stroke-linejoin="round"/>
<path d="M6.66669 10.5C7.10871 10.5 7.53264 10.3244 7.8452 10.0118C8.15776 9.69927 8.33335 9.27535 8.33335 8.83332V7.16666H6.66669" stroke="#707070" stroke-width="2" stroke-linecap="round" stroke-linejoin="round"/>
<path d="M11.6667 10.5C12.1087 10.5 12.5326 10.3244 12.8452 10.0118C13.1578 9.69927 13.3334 9.27535 13.3334 8.83332V7.16666H11.6667" stroke="#707070" stroke-width="2" stroke-linecap="round" stroke-linejoin="round"/>
</svg>
