<svg width="20" height="21" viewBox="0 0 20 21" fill="none" xmlns="http://www.w3.org/2000/svg">
<path d="M3.33331 17.1667V6.41666L1.70831 2.875L3.20831 2.16666L5.16665 6.375H14.8333L16.7916 2.16666L18.2916 2.875L16.6666 6.41666V17.1667H3.33331ZM8.33331 11.3333H11.6666C11.9028 11.3333 12.1007 11.2535 12.2604 11.0937C12.4201 10.934 12.5 10.7361 12.5 10.5C12.5 10.2639 12.4201 10.066 12.2604 9.90625C12.1007 9.74653 11.9028 9.66666 11.6666 9.66666H8.33331C8.0972 9.66666 7.89928 9.74653 7.73956 9.90625C7.57984 10.066 7.49998 10.2639 7.49998 10.5C7.49998 10.7361 7.57984 10.934 7.73956 11.0937C7.89928 11.2535 8.0972 11.3333 8.33331 11.3333ZM4.99998 15.5H15V8.04166H4.99998V15.5Z" fill="#707070"/>
</svg>
