<svg width="20" height="21" viewBox="0 0 20 21" fill="none" xmlns="http://www.w3.org/2000/svg">
<path d="M10.1833 2.16669H9.81667C9.37464 2.16669 8.95072 2.34228 8.63816 2.65484C8.3256 2.9674 8.15 3.39133 8.15 3.83335V3.98335C8.1497 4.27562 8.07255 4.56268 7.92628 4.81572C7.78002 5.06876 7.56978 5.27888 7.31667 5.42502L6.95834 5.63335C6.70497 5.77963 6.41756 5.85664 6.125 5.85664C5.83244 5.85664 5.54503 5.77963 5.29167 5.63335L5.16667 5.56669C4.78422 5.34607 4.32987 5.28622 3.90334 5.40028C3.47681 5.51433 3.11296 5.79297 2.89167 6.17502L2.70833 6.49169C2.48772 6.87413 2.42787 7.32849 2.54192 7.75502C2.65598 8.18155 2.93461 8.54539 3.31667 8.76669L3.44167 8.85002C3.69356 8.99545 3.90302 9.20426 4.04921 9.45571C4.1954 9.70716 4.27325 9.9925 4.275 10.2834V10.7084C4.27617 11.002 4.19971 11.2908 4.05337 11.5454C3.90703 11.8001 3.69601 12.0115 3.44167 12.1584L3.31667 12.2334C2.93461 12.4546 2.65598 12.8185 2.54192 13.245C2.42787 13.6716 2.48772 14.1259 2.70833 14.5084L2.89167 14.825C3.11296 15.2071 3.47681 15.4857 3.90334 15.5998C4.32987 15.7138 4.78422 15.654 5.16667 15.4334L5.29167 15.3667C5.54503 15.2204 5.83244 15.1434 6.125 15.1434C6.41756 15.1434 6.70497 15.2204 6.95834 15.3667L7.31667 15.575C7.56978 15.7212 7.78002 15.9313 7.92628 16.1843C8.07255 16.4374 8.1497 16.7244 8.15 17.0167V17.1667C8.15 17.6087 8.3256 18.0326 8.63816 18.3452C8.95072 18.6578 9.37464 18.8334 9.81667 18.8334H10.1833C10.6254 18.8334 11.0493 18.6578 11.3618 18.3452C11.6744 18.0326 11.85 17.6087 11.85 17.1667V17.0167C11.8503 16.7244 11.9275 16.4374 12.0737 16.1843C12.22 15.9313 12.4302 15.7212 12.6833 15.575L13.0417 15.3667C13.295 15.2204 13.5824 15.1434 13.875 15.1434C14.1676 15.1434 14.455 15.2204 14.7083 15.3667L14.8333 15.4334C15.2158 15.654 15.6701 15.7138 16.0967 15.5998C16.5232 15.4857 16.887 15.2071 17.1083 14.825L17.2917 14.5C17.5123 14.1176 17.5721 13.6632 17.4581 13.2367C17.344 12.8102 17.0654 12.4463 16.6833 12.225L16.5583 12.1584C16.304 12.0115 16.093 11.8001 15.9466 11.5454C15.8003 11.2908 15.7238 11.002 15.725 10.7084V10.2917C15.7238 9.998 15.8003 9.70923 15.9466 9.4546C16.093 9.19997 16.304 8.98853 16.5583 8.84169L16.6833 8.76669C17.0654 8.54539 17.344 8.18155 17.4581 7.75502C17.5721 7.32849 17.5123 6.87413 17.2917 6.49169L17.1083 6.17502C16.887 5.79297 16.5232 5.51433 16.0967 5.40028C15.6701 5.28622 15.2158 5.34607 14.8333 5.56669L14.7083 5.63335C14.455 5.77963 14.1676 5.85664 13.875 5.85664C13.5824 5.85664 13.295 5.77963 13.0417 5.63335L12.6833 5.42502C12.4302 5.27888 12.22 5.06876 12.0737 4.81572C11.9275 4.56268 11.8503 4.27562 11.85 3.98335V3.83335C11.85 3.39133 11.6744 2.9674 11.3618 2.65484C11.0493 2.34228 10.6254 2.16669 10.1833 2.16669Z" stroke="#7D7F88" stroke-width="2" stroke-linecap="round" stroke-linejoin="round"/>
<path d="M10 13C11.3807 13 12.5 11.8807 12.5 10.5C12.5 9.11929 11.3807 8 10 8C8.61929 8 7.5 9.11929 7.5 10.5C7.5 11.8807 8.61929 13 10 13Z" stroke="#7D7F88" stroke-width="2" stroke-linecap="round" stroke-linejoin="round"/>
</svg>
