<svg width="20" height="21" viewBox="0 0 20 21" fill="none" xmlns="http://www.w3.org/2000/svg">
<path d="M13.3334 18V16.3333C13.3334 15.4493 12.9822 14.6014 12.357 13.9763C11.7319 13.3512 10.8841 13 10 13H5.00002C4.11597 13 3.26812 13.3512 2.643 13.9763C2.01788 14.6014 1.66669 15.4493 1.66669 16.3333V18" stroke="#707070" stroke-width="2" stroke-linecap="round" stroke-linejoin="round"/>
<path d="M13.3333 3.10666C14.0481 3.29197 14.6811 3.70938 15.133 4.29338C15.585 4.87738 15.8301 5.5949 15.8301 6.33333C15.8301 7.07175 15.585 7.78928 15.133 8.37327C14.6811 8.95727 14.0481 9.37468 13.3333 9.55999" stroke="#707070" stroke-width="2" stroke-linecap="round" stroke-linejoin="round"/>
<path d="M18.3333 18V16.3333C18.3328 15.5948 18.0869 14.8773 17.6345 14.2936C17.182 13.7099 16.5484 13.293 15.8333 13.1083" stroke="#707070" stroke-width="2" stroke-linecap="round" stroke-linejoin="round"/>
<path d="M7.50002 9.66667C9.34097 9.66667 10.8334 8.17428 10.8334 6.33333C10.8334 4.49238 9.34097 3 7.50002 3C5.65907 3 4.16669 4.49238 4.16669 6.33333C4.16669 8.17428 5.65907 9.66667 7.50002 9.66667Z" stroke="#707070" stroke-width="2" stroke-linecap="round" stroke-linejoin="round"/>
</svg>
