<svg width="20" height="21" viewBox="0 0 20 21" fill="none" xmlns="http://www.w3.org/2000/svg">
<path d="M6.87498 5.5C6.87498 5.33424 6.94083 5.17527 7.05804 5.05806C7.17525 4.94085 7.33422 4.875 7.49998 4.875H12.5C12.6657 4.875 12.8247 4.94085 12.9419 5.05806C13.0591 5.17527 13.125 5.33424 13.125 5.5C13.125 5.66576 13.0591 5.82473 12.9419 5.94194C12.8247 6.05915 12.6657 6.125 12.5 6.125H7.49998C7.33422 6.125 7.17525 6.05915 7.05804 5.94194C6.94083 5.82473 6.87498 5.66576 6.87498 5.5ZM17.7116 17.2025C17.5766 17.3858 17.4001 17.5347 17.1967 17.6371C16.9933 17.7395 16.7686 17.7924 16.5408 17.7917H15.4058C15.3558 17.895 15.2966 17.995 15.2216 18.0867C15.0835 18.2552 14.9096 18.3909 14.7126 18.484C14.5156 18.5771 14.3004 18.6253 14.0825 18.625H5.91831C5.47665 18.625 5.06081 18.4292 4.77915 18.0867C4.70571 17.9964 4.64384 17.8973 4.59498 17.7917H3.45998C3.23222 17.7926 3.00747 17.7397 2.80401 17.6373C2.60056 17.5349 2.42415 17.3859 2.28915 17.2025C2.15144 17.0199 2.05883 16.8073 2.01886 16.5821C1.97889 16.357 1.9927 16.1255 2.05915 15.9067C2.3205 15.0371 2.84732 14.271 3.56581 13.7158C3.07857 13.2543 2.78111 12.6276 2.73165 11.9583H2.70915V4.66667C2.70959 4.05901 2.95117 3.47638 3.38085 3.0467C3.81052 2.61703 4.39316 2.37544 5.00081 2.375H15.0008C15.6085 2.37544 16.1911 2.61703 16.6208 3.0467C17.0505 3.47638 17.292 4.05901 17.2925 4.66667V11.9583H17.27C17.2205 12.6276 16.9231 13.2543 16.4358 13.7158C17.1543 14.271 17.6811 15.0371 17.9425 15.9067C18.0758 16.355 17.9916 16.8267 17.7116 17.2025ZM16.0416 11.75C16.0416 10.9458 15.3875 10.2917 14.5833 10.2917C13.7791 10.2917 13.125 10.9458 13.125 11.75C13.125 12.5542 13.7791 13.2083 14.5833 13.2083C15.3875 13.2083 16.0416 12.5542 16.0416 11.75ZM3.95831 4.66667V9.475C4.39244 9.19289 4.89891 9.0424 5.41665 9.04167C6.02248 9.04167 6.57581 9.24833 7.02748 9.58583C7.42165 8.31083 8.59748 7.375 9.99998 7.375C11.4025 7.375 12.5783 8.31 12.9725 9.58583C13.4363 9.23474 14.0016 9.04377 14.5833 9.04167C15.1011 9.0424 15.6075 9.19289 16.0416 9.475V4.66667C16.0416 4.0925 15.5741 3.625 15 3.625H4.99998C4.42581 3.625 3.95831 4.0925 3.95831 4.66667ZM9.99998 8.625C8.96665 8.625 8.12498 9.46667 8.12498 10.5C8.12498 11.5333 8.96665 12.375 9.99998 12.375C11.0333 12.375 11.875 11.5333 11.875 10.5C11.875 9.46667 11.0333 8.625 9.99998 8.625ZM5.41665 10.2917C4.61248 10.2917 3.95831 10.9458 3.95831 11.75C3.95831 12.5542 4.61248 13.2083 5.41665 13.2083C6.22081 13.2083 6.87498 12.5542 6.87498 11.75C6.87498 10.9458 6.22081 10.2917 5.41665 10.2917ZM5.66331 14.4333C5.58081 14.4408 5.50165 14.4583 5.41665 14.4583C5.21831 14.4583 5.02581 14.4342 4.83915 14.3933C4.46173 14.5811 4.12663 14.844 3.85438 15.1658C3.58212 15.4876 3.37844 15.8617 3.25581 16.265C3.22915 16.3542 3.26581 16.4225 3.28998 16.4558C3.31415 16.4892 3.36831 16.5425 3.45915 16.5425H4.58748C4.79095 15.7708 5.15784 15.0518 5.66331 14.4342V14.4333ZM14.295 17.16C13.8966 15.1117 12.09 13.625 10.0008 13.625C7.91165 13.625 6.10415 15.1117 5.70665 17.16C5.70244 17.1834 5.70372 17.2075 5.71037 17.2303C5.71702 17.2532 5.72887 17.2742 5.74498 17.2917C5.78748 17.3433 5.85248 17.375 5.91915 17.375H14.0833C14.15 17.375 14.215 17.3442 14.2575 17.2917C14.2735 17.2741 14.2854 17.2531 14.292 17.2303C14.2986 17.2075 14.3 17.1834 14.2958 17.16H14.295ZM16.7441 16.265C16.6215 15.8617 16.4178 15.4876 16.1456 15.1658C15.8733 14.844 15.5382 14.5811 15.1608 14.3933C14.9712 14.4358 14.7776 14.4576 14.5833 14.4583C14.4991 14.4583 14.4191 14.4408 14.3366 14.4333C14.8418 15.0511 15.2087 15.7701 15.4125 16.5417H16.5408C16.6316 16.5417 16.6858 16.4883 16.71 16.455C16.7341 16.4217 16.7708 16.355 16.7441 16.265Z" fill="#707070"/>
</svg>
